PathFileType	4	(X/Y/Z)	C:/Users/opensim2020/Desktop/walking_exp_matlab/subject03_walking14_straight_02.trc																																																																																																																																											
DataRate	CameraRate	NumFrames	NumMarkers	Units	OrigDataRate	OrigDataStartFrame	OrigNumFrames																																																																																																																																							
100	100	6	47	mm	100	1191	168																																																																																																																																							
Frame#	Time	LFHD			RFHD			LBHD			RBHD			C7			T10			CLAV			STRN			RBAK			LSHO			LUPA			LELB			LFRM			LWRA			LWRB			LFIN			RSHO			RUPA			RELB			RFRM			RWRA			RWRB			RFIN			LASI			RASI			LPSI			RPSI			LTHI			LKNE			LTIB			LANK			LHEE			LTOE			RTHI			RKNE			RTIB			RANK			RHEE			RTOE			*39			*40			*41			*42			*43			*44			*45			*46		
		X1	Y1	Z1	X2	Y2	Z2	X3	Y3	Z3	X4	Y4	Z4	X5	Y5	Z5	X6	Y6	Z6	X7	Y7	Z7	X8	Y8	Z8	X9	Y9	Z9	X10	Y10	Z10	X11	Y11	Z11	X12	Y12	Z12	X13	Y13	Z13	X14	Y14	Z14	X15	Y15	Z15	X16	Y16	Z16	X17	Y17	Z17	X18	Y18	Z18	X19	Y19	Z19	X20	Y20	Z20	X21	Y21	Z21	X22	Y22	Z22	X23	Y23	Z23	X24	Y24	Z24	X25	Y25	Z25	X26	Y26	Z26	X27	Y27	Z27	X28	Y28	Z28	X29	Y29	Z29	X30	Y30	Z30	X31	Y31	Z31	X32	Y32	Z32	X33	Y33	Z33	X34	Y34	Z34	X35	Y35	Z35	X36	Y36	Z36	X37	Y37	Z37	X38	Y38	Z38	X39	Y39	Z39	X40	Y40	Z40	X41	Y41	Z41	X42	Y42	Z42	X43	Y43	Z43	X44	Y44	Z44	X45	Y45	Z45	X46	Y46	Z46	X47	Y47	Z47
																																																																																																																																														
148	1.47	707.9903	1601.1438	902.33228	699.14215	1613.2334	1034.72998	589.10614	1536.50757	904.854	585.62531	1548.54871	1034.78552	578.01843	1384.66296	964.68341	567.08026	1072.18298	957.89471	705.32953	1318.09595	976.44073	761.07813	1156.58252	978.1048	529.40863	1207.32581	1056.03491	671.94843	1352.17688	814.61469	643.83179	1153.86694	745.02911	630.77802	1031.24683	733.27667	624.38287	899.98718	728.7514	604.22253	778.68732	754.27063	590.14661	793.50226	700.58423	552.80347	712.75214	711.65442	641.72412	1338.1521	1130.00452	700.44708	1133.51746	1214.93542	759.91071	1041.02832	1234.37292	855.6507	944.69006	1236.2428	942.03473	898.53589	1204.03259	918.27795	865.90912	1238.75806	986.07471	840.42633	1237.26697	756.84619	918.37976	868.82043	710.16406	914.66254	1103.13562	588.17438	930.06238	883.85425	560.81067	943.14191	1030.36353	793.01935	626.6684	821.30798	858.01508	469.32809	869.3006	860.17169	269.11719	867.521	896.60699	64.23481	903.40198	858.33984	27.68348	939.21844	1043.26318	43.44184	930.00165	604.38556	628.46088	1134.21704	581.24365	448.08362	1105.95093	450.68369	299.78354	1096.48816	323.26163	126.91107	1039.08655	273.97592	122.02545	984.7146	432.7106	29.46052	1021.50336	614.00543	1649.10889	946.34357	NaN	NaN	NaN	NaN	NaN	NaN	NaN	NaN	NaN	NaN	NaN	NaN	NaN	NaN	NaN	NaN	NaN	NaN	NaN	NaN	NaN
149	1.48	719.80621	1601.67456	901.52765	711.13904	1613.87537	1033.75232	601.3913	1536.74243	904.03357	597.80957	1548.88599	1033.84363	590.4115	1384.50354	962.82733	581.31091	1071.76514	956.703	717.83142	1318.64941	975.80231	774.43628	1157.41846	978.02539	542.05103	1206.66028	1053.79321	685.64551	1352.44824	813.6485	658.02777	1154.21143	743.67889	643.98199	1031.33215	731.87506	637.03003	900.34796	727.43237	616.15442	779.13293	752.96289	602.5426	793.88452	698.91467	563.52905	713.74219	710.328	653.02448	1338.2373	1128.90637	711.75836	1133.22559	1213.22815	770.72693	1040.66638	1232.90137	866.90015	944.90765	1234.93457	953.87457	900.19336	1203.20459	930.11969	866.61029	1237.0592	998.43988	842.79865	1236.42761	772.17468	918.94788	868.87506	724.51282	914.48199	1102.73389	604.09283	930.80359	882.32947	575.65784	942.71558	1029.41858	805.77252	627.01459	820.00604	871.67285	469.61902	867.80078	872.41217	270.45636	865.1286	902.22418	63.93537	901.89575	861.2041	30.22307	937.61719	1048.2478	37.21107	929.57141	621.06274	627.24664	1135.15454	599.67072	446.54709	1109.0437	464.16824	302.73987	1098.22852	331.11514	134.62411	1039.8446	283.10034	132.74496	984.67902	433.83237	29.41131	1021.60175	625.79694	1649.05676	945.03662	NaN	NaN	NaN	NaN	NaN	NaN	NaN	NaN	NaN	NaN	NaN	NaN	NaN	NaN	NaN	NaN	NaN	NaN	NaN	NaN	NaN
150	1.49	732.0722	1602.24634	900.65759	723.15283	1614.45374	1032.79956	613.67572	1537.36426	902.89276	609.86523	1549.68701	1032.87842	603.12909	1384.67102	960.78326	595.40082	1071.5824	955.47943	730.33331	1319.43127	975.1167	787.79706	1158.47461	977.72821	554.7912	1206.00696	1051.51099	699.1842	1353.04456	812.71191	672.4906	1154.74121	742.74579	658.37195	1032.09424	730.86877	650.35596	900.94482	726.22638	628.78503	780.05939	751.54974	615.62134	794.61511	697.26489	575.66797	714.63062	708.86609	664.29199	1338.57581	1127.91516	722.82281	1133.16431	1211.57214	781.13373	1040.34705	1231.3988	877.55591	945.01001	1233.50183	964.97754	901.27197	1202.0885	941.16309	867.05719	1235.28369	1009.64789	844.06732	1235.12268	787.41876	920.08313	869.08752	738.90448	914.6131	1102.11694	619.3222	932.10327	881.41821	590.36078	942.5481	1028.64758	817.44452	626.93237	818.18359	885.77844	470.56729	866.62463	883.15521	270.98117	863.65961	904.6095	63.31993	902.07538	862.29999	30.86207	937.30524	1052.36292	35.18409	927.78723	638.31946	626.11749	1136.27319	619.56586	445.06134	1112.95142	479.17804	305.83878	1100.19788	340.91028	142.90337	1040.5011	294.65594	144.23738	984.22748	435.09921	29.39598	1021.63458	637.74127	1649.87573	944.10437	NaN	NaN	NaN	NaN	NaN	NaN	NaN	NaN	NaN	NaN	NaN	NaN	NaN	NaN	NaN	NaN	NaN	NaN	NaN	NaN	NaN
151	1.5	744.53534	1602.77649	899.76263	735.33636	1615.03271	1032.19995	625.74512	1538.17578	901.96893	621.79218	1550.44604	1031.77527	615.60211	1385.08838	959.88904	609.3269	1071.74548	953.88916	742.84271	1320.22595	974.42096	801.23676	1159.64978	977.28986	567.4787	1205.63391	1049.26221	712.60419	1353.87439	811.92059	687.32697	1155.41272	741.92493	672.77911	1032.91382	729.98981	664.27405	901.87451	725.21075	642.20343	781.05322	750.07947	629.51654	795.52655	695.68518	589.21973	715.46454	707.27972	675.59363	1339.18469	1126.88806	733.54572	1133.198	1209.9823	791.32672	1040.23633	1229.71497	887.77423	945.0368	1231.95239	975.40985	901.67755	1200.83081	951.41742	867.18042	1233.48291	1020.02692	844.58118	1233.94727	802.26556	921.72571	869.37604	753.29327	914.99988	1101.35754	634.15271	933.7038	880.39185	604.81824	942.31482	1027.89539	829.13318	627.19708	816.6333	899.89502	471.46576	866.0697	892.20166	270.96643	862.76508	904.99573	64.07008	902.60199	862.99738	31.32003	937.50781	1054.25122	33.91485	928.41461	656.18463	624.96124	1137.75879	640.58417	443.5993	1117.39063	495.63489	309.22525	1102.41626	352.89044	151.36803	1041.24451	309.01138	155.97934	983.71423	436.44604	29.4483	1021.76691	650.09113	1650.54395	943.29297	NaN	NaN	NaN	NaN	NaN	NaN	NaN	NaN	NaN	NaN	NaN	NaN	NaN	NaN	NaN	NaN	NaN	NaN	NaN	NaN	NaN
152	1.51	756.64557	1603.328	899.09436	747.31445	1615.54016	1031.43225	637.75989	1539.01953	901.09534	633.75092	1551.10352	1030.86511	628.2359	1385.35547	958.16064	623.13849	1072.03955	952.40021	755.3382	1321.04663	973.77728	814.40887	1160.83252	976.91272	580.159	1205.45764	1047.21228	725.93994	1354.85291	811.23798	702.32574	1156.34253	741.01685	687.30023	1033.7793	729.04645	678.78894	902.8819	724.19934	656.42072	782.10699	748.69812	644.17523	796.52722	694.23486	604.14478	716.19202	705.55865	686.92462	1339.9248	1125.84595	744.05164	1133.34473	1208.4021	801.28241	1040.16431	1227.93933	897.57764	944.92841	1230.3479	985.27435	901.61499	1199.50549	960.98444	866.93671	1231.82971	1029.73254	844.33826	1232.99976	816.40161	923.51892	869.47137	767.43121	915.51501	1100.38843	648.22186	935.52075	879.99677	618.75452	942.19806	1027.54919	842.23517	628.51752	816.15924	913.36884	472.39368	865.92749	899.60199	271.35379	861.74683	906.00995	64.35403	903.05066	863.48663	31.61898	937.24249	1055.72522	32.66476	930.10742	674.67389	623.65851	1139.6499	662.67413	442.12778	1121.63452	513.87048	312.61572	1104.8158	367.50616	159.25516	1042.4873	326.13843	167.41684	983.84308	438.73123	29.92662	1021.55316	662.55475	1651.64844	942.37256	NaN	NaN	NaN	NaN	NaN	NaN	NaN	NaN	NaN	NaN	NaN	NaN	NaN	NaN	NaN	NaN	NaN	NaN	NaN	NaN	NaN
153	1.52	768.62231	1603.99597	898.35193	759.27124	1616.0011	1030.71033	649.78412	1539.8501	900.15253	645.57025	1551.74585	1029.86169	640.39899	1385.66809	957.31403	636.31927	1072.50415	951.30634	767.81274	1321.80774	973.18018	827.49176	1161.84814	976.53973	592.7287	1205.354	1045.43042	739.36896	1355.89136	810.68311	717.05621	1157.33142	740.11676	702.41364	1034.80469	728.37592	693.85474	903.93353	723.27747	671.47009	783.18268	747.47858	659.68774	797.4361	692.91211	620.42163	716.66046	703.76428	698.10309	1340.83557	1124.90613	754.25824	1133.45093	1207.04468	810.99463	1040.11157	1226.13123	906.89471	944.51923	1228.73291	994.45551	900.67749	1198.10742	969.90369	866.14935	1230.32263	1038.3783	842.95215	1231.71045	830.08618	925.45844	869.2345	781.27783	916.04474	1099.26221	661.45319	937.49121	880.13501	632.3399	942.06073	1027.41968	857.9342	631.19623	815.93616	925.37518	472.81335	865.59735	906.50024	271.92661	860.79944	906.23334	64.65189	903.10956	863.68365	31.72027	937.00763	1056.34229	31.93424	929.93616	693.39008	622.14752	1141.21777	685.55084	440.71243	1125.05859	534.17627	315.46484	1107.04468	384.73718	165.83147	1044.32983	345.35284	178.56168	985.17395	440.92206	30.1016	1020.7287	674.93146	1652.48608	941.93628	NaN	NaN	NaN	NaN	NaN	NaN	NaN	NaN	NaN	NaN	NaN	NaN	NaN	NaN	NaN	NaN	NaN	NaN	NaN	NaN	NaN
